<svg xmlns="http://www.w3.org/2000/svg" viewBox="0 0 64 64" width="64" height="64">
  <!-- Background -->
  <rect width="64" height="64" fill="#121212"/>

  <!-- Glow effect -->
  <defs>
    <filter id="glow">
      <feGaussianBlur stdDeviation="1.5" result="coloredBlur"/>
      <feMerge>
        <feMergeNode in="coloredBlur"/>
        <feMergeNode in="SourceGraphic"/>
      </feMerge>
    </filter>
    <linearGradient id="cpuGradient" x1="0%" y1="0%" x2="100%" y2="100%">
      <stop offset="0%" style="stop-color:#66d9ef;stop-opacity:1" />
      <stop offset="100%" style="stop-color:#f92672;stop-opacity:1" />
    </linearGradient>
  </defs>

  <!-- CPU chip main body -->
  <rect x="16" y="16" width="32" height="32" fill="none" stroke="#66d9ef" stroke-width="1.5" rx="2" filter="url(#glow)"/>

  <!-- Inner CPU details -->
  <rect x="20" y="20" width="24" height="24" fill="none" stroke="#f92672" stroke-width="1" rx="1" opacity="0.7"/>

  <!-- CPU center core -->
  <rect x="24" y="24" width="16" height="16" fill="#66d9ef" opacity="0.3" rx="1"/>
  <rect x="26" y="26" width="12" height="12" fill="none" stroke="#66d9ef" stroke-width="0.8"/>

  <!-- Connection pins - top -->
  <line x1="22" y1="10" x2="22" y2="16" stroke="#f92672" stroke-width="1.2" filter="url(#glow)"/>
  <line x1="32" y1="10" x2="32" y2="16" stroke="#66d9ef" stroke-width="1.2" filter="url(#glow)"/>
  <line x1="42" y1="10" x2="42" y2="16" stroke="#f92672" stroke-width="1.2" filter="url(#glow)"/>

  <!-- Connection pins - bottom -->
  <line x1="22" y1="48" x2="22" y2="54" stroke="#66d9ef" stroke-width="1.2" filter="url(#glow)"/>
  <line x1="32" y1="48" x2="32" y2="54" stroke="#f92672" stroke-width="1.2" filter="url(#glow)"/>
  <line x1="42" y1="48" x2="42" y2="54" stroke="#66d9ef" stroke-width="1.2" filter="url(#glow)"/>

  <!-- Connection pins - left -->
  <line x1="10" y1="22" x2="16" y2="22" stroke="#f92672" stroke-width="1.2" filter="url(#glow)"/>
  <line x1="10" y1="32" x2="16" y2="32" stroke="#66d9ef" stroke-width="1.2" filter="url(#glow)"/>
  <line x1="10" y1="42" x2="16" y2="42" stroke="#f92672" stroke-width="1.2" filter="url(#glow)"/>

  <!-- Connection pins - right -->
  <line x1="48" y1="22" x2="54" y2="22" stroke="#66d9ef" stroke-width="1.2" filter="url(#glow)"/>
  <line x1="48" y1="32" x2="54" y2="32" stroke="#f92672" stroke-width="1.2" filter="url(#glow)"/>
  <line x1="48" y1="42" x2="54" y2="42" stroke="#66d9ef" stroke-width="1.2" filter="url(#glow)"/>

  <!-- Decorative glitch lines -->
  <line x1="12" y1="12" x2="20" y2="12" stroke="#f92672" stroke-width="0.8" opacity="0.5"/>
  <line x1="52" y1="52" x2="44" y2="52" stroke="#66d9ef" stroke-width="0.8" opacity="0.5"/>
</svg>